<?xml version="1.0" encoding="iso-8859-1"?>
<!-- Generator: Adobe Illustrator 18.0.0, SVG Export Plug-In . SVG Version: 6.00 Build 0)  -->
<!DOCTYPE svg PUBLIC "-//W3C//DTD SVG 1.1//EN" "http://www.w3.org/Graphics/SVG/1.1/DTD/svg11.dtd">
<svg version="1.1" id="Capa_1" xmlns="http://www.w3.org/2000/svg" xmlns:xlink="http://www.w3.org/1999/xlink" x="0px" y="0px"
	 viewBox="0 0 57.983 57.983" style="enable-background:new 0 0 57.983 57.983;" xml:space="preserve">
<g>
	<path style="fill:#7383BF;" d="M25.934,55.598l-4.177-2.67c-1.037-0.566-2.244-2.524-2.244-3.705v-3.24
		c0,0,2.882-1.905,3.768-5.762c0.734-0.475,1.226-1.296,1.226-2.231c0,0,0-1.376,0-2.425c-3.207,1.021-6.014,1.418-6.014,1.418
		c2.188-2.188,2.957-6.682,3.225-9.872c-1.139-1.544-2-3.264-2.549-5.098c-1.395-0.625-3.231-1.029-5.655-1.029c-10.803,0-10,8-10,8
		v3.126c-0.54,0.488-0.993,1.555-0.993,2.335v3.546c0,0.934,0.491,1.756,1.226,2.231c0.886,3.857,3.768,5.762,3.768,5.762v3.24
		c0,1.182-1.207,3.14-2.244,3.705l-4.177,2.67c-1.09,0.697-0.596,2.385,0.697,2.385h23.449
		C26.53,57.983,27.023,56.295,25.934,55.598z"/>
	<path style="fill:#556080;" d="M37.991,0c-10.77,0-19.5,7.827-19.5,17.483c0,3.558,1.189,6.866,3.225,9.628
		c-0.268,3.19-1.037,7.684-3.225,9.872c0,0,6.686-0.938,11.214-3.673c2.515,1.06,5.322,1.656,8.286,1.656
		c10.77,0,19.5-7.827,19.5-17.483S48.761,0,37.991,0z"/>
	<path style="fill:#FFFFFF;" d="M38.491,12.983h-10c-0.553,0-1-0.447-1-1s0.447-1,1-1h10c0.553,0,1,0.447,1,1
		S39.044,12.983,38.491,12.983z"/>
	<path style="fill:#FFFFFF;" d="M48.491,18.983h-20c-0.553,0-1-0.447-1-1s0.447-1,1-1h20c0.553,0,1,0.447,1,1
		S49.044,18.983,48.491,18.983z"/>
	<path style="fill:#FFFFFF;" d="M48.491,24.983h-20c-0.553,0-1-0.447-1-1s0.447-1,1-1h20c0.553,0,1,0.447,1,1
		S49.044,24.983,48.491,24.983z"/>
</g>
<g>
</g>
<g>
</g>
<g>
</g>
<g>
</g>
<g>
</g>
<g>
</g>
<g>
</g>
<g>
</g>
<g>
</g>
<g>
</g>
<g>
</g>
<g>
</g>
<g>
</g>
<g>
</g>
<g>
</g>
</svg>
