<?xml version="1.0" encoding="iso-8859-1"?>
<!-- Generator: Adobe Illustrator 19.0.0, SVG Export Plug-In . SVG Version: 6.00 Build 0)  -->
<svg version="1.1" id="Layer_1" xmlns="http://www.w3.org/2000/svg" xmlns:xlink="http://www.w3.org/1999/xlink" x="0px" y="0px"
	 viewBox="0 0 504.131 504.131" style="enable-background:new 0 0 504.131 504.131;" xml:space="preserve">
<path style="fill:#565655;" d="M479.866,79.927H262.652c-8.019,0-14.557,6.522-14.557,14.549v315.171
	c0,8.027,6.538,14.549,14.557,14.549h217.214c8.019,0,14.557-6.522,14.557-14.549V94.476
	C494.423,86.457,487.885,79.927,479.866,79.927z"/>
<path style="fill:#3F3F3C;" d="M408.974,79.927H191.76c-8.019,0-14.557,6.522-14.557,14.549v315.171
	c0,8.027,6.538,14.549,14.557,14.549h217.214c8.019,0,14.557-6.522,14.557-14.549V94.476
	C423.53,86.457,416.992,79.927,408.974,79.927z"/>
<path style="fill:#007EEF;" d="M162.237,504.123l150.465-75.579c5.679,0,10.295-9.618,10.295-21.433V97.012
	c0-11.823-4.616-21.425-10.295-21.425L162.237,0c-7.877,3.182-13.446,10.87-13.446,19.858v464.415
	C148.791,493.253,154.36,500.949,162.237,504.123z"/>
<path style="fill:#0E59A5;" d="M148.791,19.858v464.415c0,8.988,5.569,16.675,13.446,19.858l150.465-75.579
	c5.679,0,10.295-9.618,10.295-21.433v-179.35"/>
<path style="fill:#DD4400;" d="M158.401,252.069c0-5.474-4.443-9.893-9.893-9.893H61.531l27.136-27.128
	c5.782-5.79,5.782-15.171,0-20.968c-5.782-5.79-15.171-5.79-20.984,0L9.708,252.062l57.998,57.99c5.782,5.782,15.171,5.782,20.953,0
	c5.797-5.782,5.782-15.179,0-20.968l-27.136-27.128h86.985C153.958,261.955,158.401,257.528,158.401,252.069z"/>
<path style="fill:#B23B00;" d="M61.531,242.176l27.136-27.128c0.772-0.764,1.418-1.591,1.969-2.465l-39.479,39.479l39.495,39.503
	c-0.551-0.882-1.213-1.709-1.985-2.473l-27.136-27.128h41.448h45.536c5.443,0,9.893-4.427,9.893-9.886
	c0-5.474-4.443-9.893-9.893-9.893h-45.536H61.531V242.176z"/>
<g>
	<path style="fill:#DD4400;" d="M190.744,258.402c-3.521,3.497-9.169,3.489-12.674,0c-3.489-3.497-3.505-9.169,0-12.666
		c3.505-3.505,9.184-3.497,12.674,0C194.233,249.234,194.233,254.897,190.744,258.402z"/>
	<path style="fill:#DD4400;" d="M229.632,258.402c-3.521,3.497-9.2,3.489-12.69,0c-3.505-3.497-3.505-9.169,0-12.666
		c3.521-3.505,9.184-3.497,12.69,0C233.114,249.234,233.114,254.897,229.632,258.402z"/>
	<circle style="fill:#DD4400;" cx="262.164" cy="252.062" r="8.956"/>
</g>
<g>
</g>
<g>
</g>
<g>
</g>
<g>
</g>
<g>
</g>
<g>
</g>
<g>
</g>
<g>
</g>
<g>
</g>
<g>
</g>
<g>
</g>
<g>
</g>
<g>
</g>
<g>
</g>
<g>
</g>
</svg>
