<?xml version="1.0" encoding="iso-8859-1"?>
<!-- Generator: Adobe Illustrator 16.0.0, SVG Export Plug-In . SVG Version: 6.00 Build 0)  -->
<!DOCTYPE svg PUBLIC "-//W3C//DTD SVG 1.1//EN" "http://www.w3.org/Graphics/SVG/1.1/DTD/svg11.dtd">
<svg xmlns="http://www.w3.org/2000/svg" xmlns:xlink="http://www.w3.org/1999/xlink" version="1.1" id="Capa_1" x="0px" y="0px" width="512px" height="512px" viewBox="0 0 73.99 73.99" style="enable-background:new 0 0 73.99 73.99;" xml:space="preserve">
<g>
	<g>
		<path d="M57.35,18.685c-4.961,0-8.818,1.755-11.75,5.356l-0.012-3.621c-0.001-0.492-0.402-0.895-0.896-0.896l-5.602-0.008    c-0.24,0-0.465,0.093-0.636,0.263c-0.17,0.17-0.265,0.396-0.265,0.636l-0.016,51.524c0,0.238,0.094,0.464,0.264,0.637    c0.17,0.169,0.396,0.262,0.636,0.262h5.813c0.496,0,0.898-0.402,0.898-0.898V54.536c2.511,2.669,6.236,4.174,10.439,4.174    c8.557,0,17.766-6.428,17.766-20.542C73.989,26.879,66.992,18.685,57.35,18.685z M56.314,51.719    c-5.963,0-10.813-5.836-10.813-13.01c0-7.173,4.851-13.009,10.813-13.009c5.965,0,10.816,5.836,10.816,13.009    C67.131,45.883,62.279,51.719,56.314,51.719z" fill="#0b9e0b"/>
		<path d="M26.202,29.618c4.718-4.043,6.563-7.963,6.563-13.88c0-4.181-1.519-7.823-4.271-10.252    c-3.313-2.998-7.965-4.334-15.084-4.334L1.176,1.192C0.528,1.193,0,1.723,0,2.373v49.706c0,0.651,0.53,1.181,1.181,1.181h6.373    c0.65,0,1.18-0.529,1.18-1.181V31.864h9.441l7.464,20.614c0.169,0.467,0.615,0.779,1.11,0.779h6.594    c0.386,0,0.749-0.188,0.971-0.509c0.218-0.315,0.269-0.721,0.135-1.085L26.202,29.618z M24.029,16.471    c0,4.979-3.908,8.197-9.956,8.197H8.732V8.425l5.117-0.006C20.604,8.494,24.029,11.203,24.029,16.471z" fill="#0b9e0b"/>
	</g>
</g>
<g>
</g>
<g>
</g>
<g>
</g>
<g>
</g>
<g>
</g>
<g>
</g>
<g>
</g>
<g>
</g>
<g>
</g>
<g>
</g>
<g>
</g>
<g>
</g>
<g>
</g>
<g>
</g>
<g>
</g>
</svg>
