<?xml version="1.0" encoding="iso-8859-1"?>
<!-- Generator: Adobe Illustrator 19.0.0, SVG Export Plug-In . SVG Version: 6.00 Build 0)  -->
<svg version="1.1" id="Layer_1" xmlns="http://www.w3.org/2000/svg" xmlns:xlink="http://www.w3.org/1999/xlink" x="0px" y="0px"
	 viewBox="0 0 512 512" style="enable-background:new 0 0 512 512;" xml:space="preserve">
<path style="fill:#FEC76B;" d="M512,67.465v377.071H0V67.465H512z"/>
<path style="fill:#FDF3C2;" d="M477.867,143.969v224.063c-23.404,0-42.371,18.967-42.371,42.371H76.504
	c0-23.404-18.967-42.371-42.371-42.371V143.969c23.404,0,42.371-18.967,42.371-42.371h358.992
	C435.496,125.002,454.463,143.969,477.867,143.969z"/>
<g>
	<path style="fill:#F53635;" d="M308.178,213.669c-2.706,0-5.251-1.283-6.86-3.459l-19.231-25.997l-19.227,25.997
		c-1.61,2.175-4.155,3.459-6.861,3.459s-5.251-1.283-6.861-3.459l-19.226-25.996l-19.225,25.996
		c-1.61,2.175-4.155,3.459-6.861,3.459s-5.251-1.283-6.861-3.459l-26.088-35.271c-2.802-3.789-2.002-9.132,1.786-11.935
		c3.79-2.799,9.131-2.005,11.935,1.786l19.226,25.996l19.225-25.996c1.609-2.175,4.155-3.459,6.861-3.459s5.251,1.283,6.861,3.459
		l19.226,25.996l19.226-25.996c1.61-2.175,4.154-3.459,6.861-3.459c2.706,0,5.251,1.283,6.86,3.459l19.232,25.997l19.231-25.997
		c2.802-3.789,8.145-4.591,11.934-1.785c3.789,2.802,4.589,8.145,1.785,11.934l-26.092,35.271
		C313.429,212.386,310.884,213.669,308.178,213.669z"/>
	<path style="fill:#F53635;" d="M409.714,293.313H102.293c-4.714,0-8.533-3.82-8.533-8.533c0-4.714,3.82-8.533,8.533-8.533h307.421
		c4.714,0,8.533,3.82,8.533,8.533C418.247,289.494,414.426,293.313,409.714,293.313z"/>
	<path style="fill:#F53635;" d="M310.071,350.669H201.936c-4.714,0-8.533-3.82-8.533-8.533c0-4.714,3.82-8.533,8.533-8.533h108.134
		c4.714,0,8.533,3.82,8.533,8.533C318.604,346.849,314.783,350.669,310.071,350.669z"/>
	<path style="fill:#F53635;" d="M409.714,259.18H102.293c-4.714,0-8.533-3.82-8.533-8.533c0-4.714,3.82-8.533,8.533-8.533h307.421
		c4.714,0,8.533,3.82,8.533,8.533C418.247,255.361,414.426,259.18,409.714,259.18z"/>
</g>
<g>
</g>
<g>
</g>
<g>
</g>
<g>
</g>
<g>
</g>
<g>
</g>
<g>
</g>
<g>
</g>
<g>
</g>
<g>
</g>
<g>
</g>
<g>
</g>
<g>
</g>
<g>
</g>
<g>
</g>
</svg>
