<?xml version="1.0" encoding="iso-8859-1"?>
<!-- Generator: Adobe Illustrator 16.0.0, SVG Export Plug-In . SVG Version: 6.00 Build 0)  -->
<!DOCTYPE svg PUBLIC "-//W3C//DTD SVG 1.1//EN" "http://www.w3.org/Graphics/SVG/1.1/DTD/svg11.dtd">
<svg xmlns="http://www.w3.org/2000/svg" xmlns:xlink="http://www.w3.org/1999/xlink" version="1.1" id="Capa_1" x="0px" y="0px" width="512px" height="512px" viewBox="0 0 422.853 422.853" style="enable-background:new 0 0 422.853 422.853;" xml:space="preserve">
<g>
	<path d="M355.142,217.766l33.828,26.008V37.36c0-2.337-1.892-4.23-4.222-4.23H4.224C1.894,33.13,0,35.023,0,37.36v262.125   c0,2.342,1.894,4.235,4.224,4.235h167.849v-29.462c0-1.488,0.196-2.933,0.437-4.36H33.821V83.417l158.163,115.99   c1.503,1.086,3.516,1.086,5.005,0l158.167-115.99v134.349H355.142z M194.49,159.286L68.578,66.949h251.817L194.49,159.286z    M422.853,303.72c0,1.335-0.624,2.615-1.686,3.437l-106.236,81.674c-0.784,0.597-1.727,0.893-2.644,0.893   c-0.919,0-1.84-0.29-2.617-0.87c-1.552-1.158-2.135-3.239-1.412-5.051l21.353-54.085H204.415c-2.399,0-4.332-1.932-4.332-4.328   v-43.333c0-2.391,1.937-4.328,4.332-4.328h125.196l-21.353-54.083c-0.723-1.812-0.14-3.882,1.412-5.053   c1.554-1.171,3.71-1.171,5.261,0.027l106.242,81.675C422.229,301.105,422.853,302.363,422.853,303.72z" fill="#006DF0"/>
</g>
<g>
</g>
<g>
</g>
<g>
</g>
<g>
</g>
<g>
</g>
<g>
</g>
<g>
</g>
<g>
</g>
<g>
</g>
<g>
</g>
<g>
</g>
<g>
</g>
<g>
</g>
<g>
</g>
<g>
</g>
</svg>
