<?xml version="1.0" encoding="UTF-8" standalone="no"?>
<!-- Generator: Adobe Illustrator 16.0.0, SVG Export Plug-In . SVG Version: 6.00 Build 0)  -->

<svg
   xmlns:dc="http://purl.org/dc/elements/1.1/"
   xmlns:cc="http://creativecommons.org/ns#"
   xmlns:rdf="http://www.w3.org/1999/02/22-rdf-syntax-ns#"
   xmlns:svg="http://www.w3.org/2000/svg"
   xmlns="http://www.w3.org/2000/svg"
   xmlns:sodipodi="http://sodipodi.sourceforge.net/DTD/sodipodi-0.dtd"
   xmlns:inkscape="http://www.inkscape.org/namespaces/inkscape"
   version="1.1"
   id="Capa_1"
   x="0px"
   y="0px"
   width="512px"
   height="512px"
   viewBox="0 0 31.357 31.357"
   style="enable-background:new 0 0 31.357 31.357;"
   xml:space="preserve"
   inkscape:version="0.91 r"
   sodipodi:docname="question-mark.svg"><metadata
     id="metadata41"><rdf:RDF><cc:Work
         rdf:about=""><dc:format>image/svg+xml</dc:format><dc:type
           rdf:resource="http://purl.org/dc/dcmitype/StillImage" /><dc:title></dc:title></cc:Work></rdf:RDF></metadata><defs
     id="defs39" /><sodipodi:namedview
     pagecolor="#ffffff"
     bordercolor="#666666"
     borderopacity="1"
     objecttolerance="10"
     gridtolerance="10"
     guidetolerance="10"
     inkscape:pageopacity="0"
     inkscape:pageshadow="2"
     inkscape:window-width="1366"
     inkscape:window-height="719"
     id="namedview37"
     showgrid="false"
     inkscape:zoom="0.4609375"
     inkscape:cx="218.0339"
     inkscape:cy="256"
     inkscape:window-x="0"
     inkscape:window-y="26"
     inkscape:window-maximized="1"
     inkscape:current-layer="Capa_1" /><g
     id="g4170"><path
       d="m 15.255,0 c 5.424,0 10.764,2.498 10.764,8.473 0,5.51 -6.314,7.629 -7.67,9.62 -1.018,1.481 -0.678,3.562 -3.475,3.562 -1.822,0 -2.712,-1.482 -2.712,-2.838 0,-5.046 7.414,-6.188 7.414,-10.343 0,-2.287 -1.522,-3.643 -4.066,-3.643 -5.424,0 -3.306,5.592 -7.414,5.592 C 6.613,10.423 5.34,9.533 5.34,7.839 5.339,3.683 10.084,0 15.255,0 Z m -0.211,24.406 c 1.904,0 3.475,1.566 3.475,3.476 0,1.91 -1.568,3.476 -3.475,3.476 -1.907,0 -3.476,-1.564 -3.476,-3.476 0,-1.909 1.569,-3.476 3.476,-3.476 z"
       id="path5"
       inkscape:connector-curvature="0"
       style="fill:#34495e;fill-opacity:1" /></g><g
     id="g7" /><g
     id="g9" /><g
     id="g11" /><g
     id="g13" /><g
     id="g15" /><g
     id="g17" /><g
     id="g19" /><g
     id="g21" /><g
     id="g23" /><g
     id="g25" /><g
     id="g27" /><g
     id="g29" /><g
     id="g31" /><g
     id="g33" /><g
     id="g35" /></svg>