<?xml version="1.0" encoding="iso-8859-1"?>
<!-- Generator: Adobe Illustrator 19.0.0, SVG Export Plug-In . SVG Version: 6.00 Build 0)  -->
<svg version="1.1" id="Layer_1" xmlns="http://www.w3.org/2000/svg" xmlns:xlink="http://www.w3.org/1999/xlink" x="0px" y="0px"
	 viewBox="0 0 512 512" style="enable-background:new 0 0 512 512;" xml:space="preserve">
<path style="fill:#F1F4FB;" d="M353.103,512H79.448c-9.751,0-17.655-7.904-17.655-17.655V17.655C61.793,7.904,69.697,0,79.448,0
	h353.103c9.751,0,17.655,7.904,17.655,17.655v397.241L353.103,512z"/>
<g>
	<path style="fill:#00C3FF;" d="M211.862,70.621c0-4.875-3.948-8.828-8.828-8.828h-70.621c-4.879,0-8.828,3.953-8.828,8.828
		s3.948,8.828,8.828,8.828h26.483v79.448c0,4.879,3.948,8.828,8.828,8.828s8.828-3.948,8.828-8.828V79.448h26.483
		C207.914,79.448,211.862,75.496,211.862,70.621z"/>
	<path style="fill:#00C3FF;" d="M266.345,74.379c-2.259-7.53-9.052-12.586-16.914-12.586h-4.518
		c-7.862,0-14.655,5.056-16.914,12.586l-24.595,81.983c-1.397,4.664,1.25,9.587,5.922,10.991c4.681,1.388,9.594-1.25,10.991-5.922
		l3.409-11.362h46.89l3.409,11.362c1.146,3.828,4.655,6.293,8.457,6.293c0.836,0,1.689-0.12,2.535-0.371
		c4.672-1.405,7.319-6.327,5.922-10.991L266.345,74.379z M229.024,132.414l15.89-52.966h4.518l15.89,52.966H229.024z"/>
	<path style="fill:#00C3FF;" d="M350.637,114.759l27.354-39.078c2.793-3.991,1.827-9.495-2.173-12.294
		c-4-2.788-9.5-1.827-12.294,2.173l-23.663,33.805L316.199,65.56c-2.793-4-8.319-4.961-12.294-2.173
		c-4,2.797-4.966,8.301-2.173,12.294l27.354,39.078l-27.354,39.078c-2.793,3.991-1.827,9.5,2.173,12.294
		c1.543,1.078,3.302,1.594,5.052,1.594c2.784,0,5.526-1.311,7.242-3.767l23.663-33.805l23.663,33.805
		c1.716,2.457,4.457,3.767,7.242,3.767c1.75,0,3.518-0.518,5.052-1.594c4-2.793,4.966-8.301,2.173-12.294L350.637,114.759z"/>
</g>
<g>
	<path style="fill:#AFB9D2;" d="M132.414,229.517h-17.655c-4.879,0-8.828-3.948-8.828-8.828s3.948-8.828,8.828-8.828h17.655
		c4.879,0,8.828,3.948,8.828,8.828S137.293,229.517,132.414,229.517z"/>
	<path style="fill:#AFB9D2;" d="M132.414,264.828h-17.655c-4.879,0-8.828-3.948-8.828-8.828c0-4.879,3.948-8.828,8.828-8.828h17.655
		c4.879,0,8.828,3.948,8.828,8.828C141.241,260.879,137.293,264.828,132.414,264.828z"/>
	<path style="fill:#AFB9D2;" d="M132.414,300.138h-17.655c-4.879,0-8.828-3.948-8.828-8.828c0-4.879,3.948-8.828,8.828-8.828h17.655
		c4.879,0,8.828,3.948,8.828,8.828C141.241,296.19,137.293,300.138,132.414,300.138z"/>
</g>
<g>
	<path style="fill:#C7CFE2;" d="M397.241,229.517h-17.655c-4.879,0-8.828-3.948-8.828-8.828s3.948-8.828,8.828-8.828h17.655
		c4.879,0,8.828,3.948,8.828,8.828S402.121,229.517,397.241,229.517z"/>
	<path style="fill:#C7CFE2;" d="M397.241,264.828h-17.655c-4.879,0-8.828-3.948-8.828-8.828c0-4.879,3.948-8.828,8.828-8.828h17.655
		c4.879,0,8.828,3.948,8.828,8.828C406.069,260.879,402.121,264.828,397.241,264.828z"/>
	<path style="fill:#C7CFE2;" d="M397.241,300.138h-17.655c-4.879,0-8.828-3.948-8.828-8.828c0-4.879,3.948-8.828,8.828-8.828h17.655
		c4.879,0,8.828,3.948,8.828,8.828C406.069,296.19,402.121,300.138,397.241,300.138z"/>
	<path style="fill:#C7CFE2;" d="M273.655,229.517H167.724c-4.879,0-8.828-3.948-8.828-8.828s3.948-8.828,8.828-8.828h105.931
		c4.879,0,8.828,3.948,8.828,8.828S278.535,229.517,273.655,229.517z"/>
	<path style="fill:#C7CFE2;" d="M238.345,264.828h-70.621c-4.879,0-8.828-3.948-8.828-8.828c0-4.879,3.948-8.828,8.828-8.828h70.621
		c4.879,0,8.828,3.948,8.828,8.828C247.172,260.879,243.224,264.828,238.345,264.828z"/>
	<path style="fill:#C7CFE2;" d="M273.655,300.138H167.724c-4.879,0-8.828-3.948-8.828-8.828c0-4.879,3.948-8.828,8.828-8.828
		h105.931c4.879,0,8.828,3.948,8.828,8.828C282.483,296.19,278.535,300.138,273.655,300.138z"/>
</g>
<g>
	<path style="fill:#00C3FF;" d="M150.069,391.066v-27.598c5.421,1.98,8.828,5.574,8.828,8.946c0,4.879,3.948,8.828,8.828,8.828
		s8.828-3.948,8.828-8.828c0-13.323-11.115-24.119-26.483-27.182v-0.956c0-4.879-3.948-8.828-8.828-8.828s-8.828,3.948-8.828,8.828
		v0.956c-15.368,3.063-26.483,13.859-26.483,27.182c0,18.628,14.641,26.474,26.483,31.003v27.598
		c-5.421-1.98-8.828-5.574-8.828-8.946c0-4.879-3.948-8.828-8.828-8.828c-4.879,0-8.828,3.948-8.828,8.828
		c0,13.323,11.115,24.119,26.483,27.182v0.956c0,4.879,3.948,8.828,8.828,8.828s8.828-3.948,8.828-8.828v-0.956
		c15.368-3.063,26.483-13.859,26.483-27.182C176.552,403.441,161.911,395.595,150.069,391.066z M123.586,372.414
		c0-3.372,3.406-6.966,8.828-8.946v20.598C125.199,380.334,123.586,377.017,123.586,372.414z M150.069,431.015v-20.598
		c7.214,3.731,8.828,7.049,8.828,11.652C158.897,425.441,155.49,429.035,150.069,431.015z"/>
	<path style="fill:#00C3FF;" d="M264.828,370.759h-61.793c-4.879,0-8.828-3.948-8.828-8.828s3.948-8.828,8.828-8.828h61.793
		c4.879,0,8.828,3.948,8.828,8.828S269.707,370.759,264.828,370.759z"/>
</g>
<g>
	<path style="fill:#C7CFE2;" d="M238.345,441.379h-35.31c-4.879,0-8.828-3.948-8.828-8.828c0-4.879,3.948-8.828,8.828-8.828h35.31
		c4.879,0,8.828,3.948,8.828,8.828C247.172,437.431,243.224,441.379,238.345,441.379z"/>
	<path style="fill:#C7CFE2;" d="M291.31,441.379h-17.655c-4.879,0-8.828-3.948-8.828-8.828c0-4.879,3.948-8.828,8.828-8.828h17.655
		c4.879,0,8.828,3.948,8.828,8.828C300.138,437.431,296.19,441.379,291.31,441.379z"/>
</g>
<path style="fill:#00C3FF;" d="M317.793,406.069H203.034c-4.879,0-8.828-3.948-8.828-8.828c0-4.879,3.948-8.828,8.828-8.828h114.759
	c4.879,0,8.828,3.948,8.828,8.828C326.621,402.121,322.673,406.069,317.793,406.069z"/>
<g>
	<path style="fill:#D5DCED;" d="M353.103,512v-79.448c0-9.751,7.904-17.655,17.655-17.655h79.448L353.103,512z"/>
	<circle style="fill:#D5DCED;" cx="273.655" cy="256" r="8.828"/>
	<circle style="fill:#D5DCED;" cx="344.276" cy="256" r="8.828"/>
	<circle style="fill:#D5DCED;" cx="308.966" cy="256" r="8.828"/>
	<circle style="fill:#D5DCED;" cx="344.276" cy="220.69" r="8.828"/>
	<circle style="fill:#D5DCED;" cx="308.966" cy="220.69" r="8.828"/>
	<circle style="fill:#D5DCED;" cx="344.276" cy="291.31" r="8.828"/>
	<circle style="fill:#D5DCED;" cx="308.966" cy="291.31" r="8.828"/>
</g>
<g>
</g>
<g>
</g>
<g>
</g>
<g>
</g>
<g>
</g>
<g>
</g>
<g>
</g>
<g>
</g>
<g>
</g>
<g>
</g>
<g>
</g>
<g>
</g>
<g>
</g>
<g>
</g>
<g>
</g>
</svg>
